<svg version="1.2" xmlns="http://www.w3.org/2000/svg" viewBox="0 0 1920 1080" width="1920" height="1080">
	<title>Thumbnail</title>
	<style>
		.s0 { fill: #4bb179 } 
		.s1 { opacity: .2;fill: none;stroke: #ffffff } 
	</style>
	<g>
		<path fill-rule="evenodd" class="s0" d="m61.8-32h1788.4c44.1 0 79.8 35 79.8 78.2v997.6c0 43.2-35.7 78.2-79.8 78.2h-1788.4c-44.1 0-79.8-35-79.8-78.2v-997.6c0-43.2 35.7-78.2 79.8-78.2z"/>
		<g id="Folder 1">
			<path class="s1" d="m609.5 775.5c0 168.4-136.3 305-304.5 305-168.2 0-304.5-136.6-304.5-305 0-168.4 136.3-305 304.5-305 168.2 0 304.5 136.6 304.5 305z"/>
			<path id="Layer copy" class="s1" d="m609.5 163.5c0 168.4-136.3 305-304.5 305-168.2 0-304.5-136.6-304.5-305 0-168.4 136.3-305 304.5-305 168.2 0 304.5 136.6 304.5 305z"/>
		</g>
		<g id="Folder 1 copy">
			<path class="s1" d="m1219.5 775.5c0 168.4-136.3 305-304.5 305-168.2 0-304.5-136.6-304.5-305 0-168.4 136.3-305 304.5-305 168.2 0 304.5 136.6 304.5 305z"/>
			<path id="Layer copy" class="s1" d="m1219.5 163.5c0 168.4-136.3 305-304.5 305-168.2 0-304.5-136.6-304.5-305 0-168.4 136.3-305 304.5-305 168.2 0 304.5 136.6 304.5 305z"/>
		</g>
		<g id="Folder 1 copy 2">
			<path class="s1" d="m1829.5 775.5c0 168.4-136.3 305-304.5 305-168.2 0-304.5-136.6-304.5-305 0-168.4 136.3-305 304.5-305 168.2 0 304.5 136.6 304.5 305z"/>
			<path id="Layer copy" class="s1" d="m1829.5 163.5c0 168.4-136.3 305-304.5 305-168.2 0-304.5-136.6-304.5-305 0-168.4 136.3-305 304.5-305 168.2 0 304.5 136.6 304.5 305z"/>
			<path id="Layer copy 2" class="s1" d="m917.5 454.5c0 168.4-136.3 305-304.5 305-168.2 0-304.5-136.6-304.5-305 0-168.4 136.3-305 304.5-305 168.2 0 304.5 136.6 304.5 305z"/>
			<path id="Layer copy 3" class="s1" d="m1527.5 454.5c0 168.4-136.3 305-304.5 305-168.2 0-304.5-136.6-304.5-305 0-168.4 136.3-305 304.5-305 168.2 0 304.5 136.6 304.5 305z"/>
		</g>
	</g>
</svg>
