<svg version="1.2" xmlns="http://www.w3.org/2000/svg" viewBox="0 0 24 24" width="24" height="24">
	<title>New Project</title>
	<style>
		.s0 { fill: #22d1ee } 
		.s1 { fill: #ffffff } 
	</style>
	<path id="Shape 1" fill-rule="evenodd" class="s0" d="m12 24c-6.6 0-12-5.4-12-12 0-6.6 5.4-12 12-12 6.6 0 12 5.4 12 12 0 6.6-5.4 12-12 12z"/>
	<path id="Shape 1 copy" fill-rule="evenodd" class="s1" d="m12 20.4c-4.8 0-8.6-3.7-8.6-8.4 0-4.7 3.8-8.4 8.6-8.4 4.8 0 8.6 3.7 8.6 8.4 0 4.7-3.8 8.4-8.6 8.4z"/>
	<path id="Shape 1 copy 2" fill-rule="evenodd" class="s0" d="m12 17.2c-2.9 0-5.3-2.3-5.3-5.2 0-2.9 2.4-5.2 5.3-5.2 2.9 0 5.3 2.3 5.3 5.2 0 2.9-2.4 5.2-5.3 5.2z"/>
</svg>